# xmcd
#
# Track frame offsets:
#       182
#       8830
#       16852
#       28820
#       38947
#       46967
#       57477
#       71720
#       82015
#       93412
#       105170
#       114510
#
# Disc length: 1700 seconds
#
# Revision: 3
# Processed by: cddbd v1.5.2PL0 Copyright (c) Steve Scherf et al.
# Submitted via: FreeDbEdit v0.1
#
DISCID=9406a20c
DTITLE=Roger Miller - King of the Road, Volume 2 [CD2]
DYEAR=1995
DGENRE=Country
TTITLE0=England Swings
TTITLE1=In the Summertime
TTITLE2=Little Green Apples
TTITLE3=Heartbreak Hotel
TTITLE4=(And You Had A) Do Wacka-Do
TTITLE5=Engine Engine #9
TTITLE6=Green Green Grass of Home
TTITLE7=I've Been a Long Time Leavin'
TTITLE8=The Tom Green County Fair
TTITLE9=Hoppy's Gone
TTITLE10=One Dying and a Burying
TTITLE11=My Elusive Dreams
EXTD=
EXTT0=
EXTT1=
EXTT2=
EXTT3=
EXTT4=
EXTT5=
EXTT6=
EXTT7=
EXTT8=
EXTT9=
EXTT10=
EXTT11=
PLAYORDER=
